<svg xmlns="http://www.w3.org/2000/svg" width="20" height="20" viewBox="0 0 20 20">
  <path id="call" d="M138.75-820a15.514,15.514,0,0,1-6.57-1.556,21.725,21.725,0,0,1-6.208-4.417,21.727,21.727,0,0,1-4.417-6.208A15.514,15.514,0,0,1,120-838.75a1.211,1.211,0,0,1,.357-.893,1.211,1.211,0,0,1,.893-.357h3.889a.909.909,0,0,1,.667.278,1.511,1.511,0,0,1,.389.694l.748,3.49a2.022,2.022,0,0,1-.012.718,1.084,1.084,0,0,1-.3.548l-2.771,2.8a23.233,23.233,0,0,0,1.528,2.278,18.074,18.074,0,0,0,1.778,2,20.193,20.193,0,0,0,2.167,1.931,17.2,17.2,0,0,0,2.389,1.542l2.639-2.722a1.419,1.419,0,0,1,.643-.417,1.589,1.589,0,0,1,.718-.056l3.306.722a1.327,1.327,0,0,1,.694.446A1.143,1.143,0,0,1,140-825v3.75a1.212,1.212,0,0,1-.357.893A1.211,1.211,0,0,1,138.75-820Zm-15.722-13,2.25-2.278-.639-3.056h-2.972a12.794,12.794,0,0,0,.375,2.458A19.7,19.7,0,0,0,123.028-833Zm10.25,10.083a13.869,13.869,0,0,0,2.472.861,13.041,13.041,0,0,0,2.583.389v-2.972l-2.861-.583ZM123.028-833ZM133.278-822.917Z" transform="translate(-120 840)" fill="#7d7e80"/>
</svg>
