<svg xmlns="http://www.w3.org/2000/svg" width="24.212" height="19.37" viewBox="0 0 24.212 19.37">
  <path id="credit_card" d="M104.212-798.184v15.738a1.742,1.742,0,0,1-.545,1.271,1.742,1.742,0,0,1-1.271.545H81.816a1.742,1.742,0,0,1-1.271-.545A1.742,1.742,0,0,1,80-782.446v-15.738a1.742,1.742,0,0,1,.545-1.271A1.742,1.742,0,0,1,81.816-800H102.4a1.742,1.742,0,0,1,1.271.545A1.742,1.742,0,0,1,104.212-798.184Zm-22.4,3.3H102.4v-3.3H81.816Zm0,3.9v8.535H102.4v-8.535Zm0,8.535v0Z" transform="translate(-80 800)" fill="#7d7e80"/>
</svg>
