<svg xmlns="http://www.w3.org/2000/svg" width="24.65" height="22" viewBox="0 0 24.65 22">
  <path id="favorite_FILL1_wght400_GRAD0_opsz48" d="M92.325-832a1.972,1.972,0,0,1-.678-.123,1.581,1.581,0,0,1-.585-.37L89.429-834a89.469,89.469,0,0,1-6.625-6.763A10.156,10.156,0,0,1,80-847.5a6.3,6.3,0,0,1,1.864-4.637A6.258,6.258,0,0,1,86.471-854a7.009,7.009,0,0,1,3.112.755,7.315,7.315,0,0,1,2.742,2.48,8.937,8.937,0,0,1,2.8-2.48,6.51,6.51,0,0,1,3.05-.755,6.258,6.258,0,0,1,4.606,1.864,6.3,6.3,0,0,1,1.864,4.637,10.156,10.156,0,0,1-2.8,6.733A89.468,89.468,0,0,1,95.221-834l-1.633,1.51a1.581,1.581,0,0,1-.585.37A1.972,1.972,0,0,1,92.325-832Z" transform="translate(-80 854)" fill="#b1b1b1"/>
</svg>
