<svg xmlns="http://www.w3.org/2000/svg" width="25.77" height="23" viewBox="0 0 25.77 23">
  <path id="favorite" d="M92.885-831a2.119,2.119,0,0,1-.7-.125,1.625,1.625,0,0,1-.628-.4l-1.7-1.57a93.562,93.562,0,0,1-6.926-7.071A10.618,10.618,0,0,1,80-847.2a6.579,6.579,0,0,1,1.949-4.851A6.546,6.546,0,0,1,86.765-854a7.328,7.328,0,0,1,3.254.789,7.648,7.648,0,0,1,2.867,2.593,9.343,9.343,0,0,1,2.931-2.593A6.805,6.805,0,0,1,99.006-854a6.546,6.546,0,0,1,4.816,1.946,6.579,6.579,0,0,1,1.949,4.851,10.618,10.618,0,0,1-2.931,7.039,93.563,93.563,0,0,1-6.926,7.071l-1.707,1.578a1.594,1.594,0,0,1-.616.393A2.118,2.118,0,0,1,92.885-831Zm-.838-17.492a7.57,7.57,0,0,0-2.287-2.577,5.116,5.116,0,0,0-3-1,4.68,4.68,0,0,0-3.479,1.369,4.781,4.781,0,0,0-1.353,3.509,7.53,7.53,0,0,0,1.252,3.905,26.665,26.665,0,0,0,3,3.978,46.49,46.49,0,0,0,3.612,3.587q1.868,1.659,3.092,2.786l3.092-2.77a45.976,45.976,0,0,0,3.608-3.624,27.9,27.9,0,0,0,3-4,7.48,7.48,0,0,0,1.256-3.876,4.734,4.734,0,0,0-1.369-3.5,4.693,4.693,0,0,0-3.463-1.369,5.147,5.147,0,0,0-3.012.983,8.026,8.026,0,0,0-2.335,2.593,1.073,1.073,0,0,1-.354.37.879.879,0,0,1-.451.113.969.969,0,0,1-.467-.113A.818.818,0,0,1,92.048-848.491ZM92.885-842.5Z" transform="translate(-80 854)" fill="#020d2f"/>
</svg>
