<svg xmlns="http://www.w3.org/2000/svg" width="23.704" height="23" viewBox="0 0 23.704 23">
  <g id="Group_53" data-name="Group 53" transform="translate(-385.683 -273)">
    <path id="person" d="M171.852-769.889a5.414,5.414,0,0,1-4-1.556,5.415,5.415,0,0,1-1.556-4,5.414,5.414,0,0,1,1.556-4,5.414,5.414,0,0,1,4-1.556,5.414,5.414,0,0,1,4,1.556,5.414,5.414,0,0,1,1.556,4,5.414,5.414,0,0,1-1.556,4A5.414,5.414,0,0,1,171.852-769.889ZM181.481-758H162.222a2.14,2.14,0,0,1-1.569-.653,2.14,2.14,0,0,1-.653-1.569v-1.259a4.076,4.076,0,0,1,.7-2.407,4.518,4.518,0,0,1,1.815-1.518,27.84,27.84,0,0,1,4.759-1.667,19.24,19.24,0,0,1,4.574-.556,18.428,18.428,0,0,1,4.556.574,30.982,30.982,0,0,1,4.738,1.655A4.473,4.473,0,0,1,183-763.883a4.066,4.066,0,0,1,.7,2.4v1.259a2.14,2.14,0,0,1-.653,1.569A2.14,2.14,0,0,1,181.481-758Zm-19.259-2.222h19.259v-1.259a2.029,2.029,0,0,0-.352-1.13,2.231,2.231,0,0,0-.87-.8,19.668,19.668,0,0,0-4.333-1.574,19.159,19.159,0,0,0-4.074-.426,19.68,19.68,0,0,0-4.111.426,18.813,18.813,0,0,0-4.333,1.574,2.1,2.1,0,0,0-.852.8,2.109,2.109,0,0,0-.333,1.13Zm9.63-11.889a3.238,3.238,0,0,0,2.389-.944,3.238,3.238,0,0,0,.944-2.389,3.238,3.238,0,0,0-.944-2.389,3.238,3.238,0,0,0-2.389-.944,3.238,3.238,0,0,0-2.389.944,3.238,3.238,0,0,0-.944,2.389,3.238,3.238,0,0,0,.944,2.389A3.238,3.238,0,0,0,171.852-772.111ZM171.852-775.445ZM171.852-760.222Z" transform="translate(225.683 1054)" fill="#7d7e80"/>
  </g>
</svg>
