<svg xmlns="http://www.w3.org/2000/svg" width="20" height="20" viewBox="0 0 20 20">
  <path id="info_2_" data-name="info (2)" d="M90.079-865a.717.717,0,0,0,.533-.216.731.731,0,0,0,.213-.534v-4.5a.723.723,0,0,0-.217-.534.732.732,0,0,0-.538-.216.718.718,0,0,0-.533.216.731.731,0,0,0-.213.534v4.5a.723.723,0,0,0,.217.534A.732.732,0,0,0,90.079-865ZM90-872.85a.812.812,0,0,0,.588-.23.762.762,0,0,0,.238-.57.836.836,0,0,0-.237-.606A.786.786,0,0,0,90-874.5a.787.787,0,0,0-.588.244.835.835,0,0,0-.237.606.762.762,0,0,0,.237.57A.811.811,0,0,0,90-872.85ZM90.007-860a9.679,9.679,0,0,1-3.888-.787,10.162,10.162,0,0,1-3.182-2.15,10.155,10.155,0,0,1-2.15-3.184A9.7,9.7,0,0,1,80-870.013a9.7,9.7,0,0,1,.787-3.891,10.006,10.006,0,0,1,2.15-3.171,10.264,10.264,0,0,1,3.184-2.138A9.7,9.7,0,0,1,90.013-880a9.7,9.7,0,0,1,3.891.787,10.111,10.111,0,0,1,3.171,2.138,10.1,10.1,0,0,1,2.137,3.175,9.721,9.721,0,0,1,.788,3.893,9.68,9.68,0,0,1-.788,3.888,10.213,10.213,0,0,1-2.137,3.177,10.094,10.094,0,0,1-3.175,2.15A9.672,9.672,0,0,1,90.007-860Zm.006-1.5a8.165,8.165,0,0,0,6.013-2.487,8.227,8.227,0,0,0,2.475-6.025,8.193,8.193,0,0,0-2.47-6.013A8.2,8.2,0,0,0,90-878.5a8.22,8.22,0,0,0-6.013,2.47A8.175,8.175,0,0,0,81.5-870a8.191,8.191,0,0,0,2.488,6.013A8.206,8.206,0,0,0,90.013-861.5ZM90-870Z" transform="translate(-80 880)" fill="#7d7e80"/>
</svg>
