<svg xmlns="http://www.w3.org/2000/svg" width="27.604" height="20.34" viewBox="0 0 27.604 20.34">
  <path id="queue_music_FILL0_wght400_GRAD0_opsz24" d="M138.887-699.66a4.2,4.2,0,0,1-3.087-1.271,4.2,4.2,0,0,1-1.271-3.087,4.2,4.2,0,0,1,1.271-3.087,4.2,4.2,0,0,1,3.087-1.271,5.141,5.141,0,0,1,.763.055,2.03,2.03,0,0,1,.69.236v-10.46a1.406,1.406,0,0,1,.418-1.035,1.406,1.406,0,0,1,1.035-.418h4.358a1.406,1.406,0,0,1,1.035.418,1.406,1.406,0,0,1,.418,1.035,1.406,1.406,0,0,1-.418,1.035,1.406,1.406,0,0,1-1.035.418h-2.906v13.076a4.2,4.2,0,0,1-1.271,3.087A4.2,4.2,0,0,1,138.887-699.66Zm-17.434-5.811a1.406,1.406,0,0,1-1.035-.418,1.406,1.406,0,0,1-.418-1.035,1.406,1.406,0,0,1,.418-1.035,1.406,1.406,0,0,1,1.035-.418h8.717a1.406,1.406,0,0,1,1.035.418,1.406,1.406,0,0,1,.418,1.035,1.406,1.406,0,0,1-.418,1.035,1.406,1.406,0,0,1-1.035.418Zm0-5.811a1.406,1.406,0,0,1-1.035-.418,1.406,1.406,0,0,1-.418-1.035,1.406,1.406,0,0,1,.418-1.035,1.406,1.406,0,0,1,1.035-.418h14.528a1.406,1.406,0,0,1,1.035.418,1.406,1.406,0,0,1,.418,1.035,1.406,1.406,0,0,1-.418,1.035,1.406,1.406,0,0,1-1.035.418Zm0-5.811a1.406,1.406,0,0,1-1.035-.418,1.406,1.406,0,0,1-.418-1.035,1.406,1.406,0,0,1,.418-1.035,1.406,1.406,0,0,1,1.035-.418h14.528a1.406,1.406,0,0,1,1.035.418,1.406,1.406,0,0,1,.418,1.035,1.406,1.406,0,0,1-.418,1.035,1.406,1.406,0,0,1-1.035.418Z" transform="translate(-120 720)" fill="rgba(2,13,47,0.48)"/>
</svg>
