<svg xmlns="http://www.w3.org/2000/svg" width="21.178" height="26.241" viewBox="0 0 21.178 26.241">
  <path id="verified_user_2_" data-name="verified_user (2)" d="M169.232-862.307l-2.614-2.614a.99.99,0,0,0-.728-.3.99.99,0,0,0-.728.3.984.984,0,0,0-.3.722,1.021,1.021,0,0,0,.3.734l3.276,3.309a.952.952,0,0,0,.695.3.952.952,0,0,0,.695-.3l6.155-6.155a.977.977,0,0,0,.3-.713A.889.889,0,0,0,176-867.7a.941.941,0,0,0-.711-.248,1,1,0,0,0-.695.281Zm1.357,11.549a1.523,1.523,0,0,1-.327-.033,1.6,1.6,0,0,1-.3-.1,13.848,13.848,0,0,1-7.28-5.576,15.576,15.576,0,0,1-2.68-8.822v-6.482a1.941,1.941,0,0,1,.36-1.147,2.057,2.057,0,0,1,.931-.739l8.6-3.21a2.034,2.034,0,0,1,.695-.132,2.034,2.034,0,0,1,.695.132l8.6,3.21a2.057,2.057,0,0,1,.931.739,1.941,1.941,0,0,1,.36,1.147v6.482a15.576,15.576,0,0,1-2.68,8.822,13.848,13.848,0,0,1-7.28,5.576,1.6,1.6,0,0,1-.3.1A1.523,1.523,0,0,1,170.589-850.759Zm0-1.952a11.939,11.939,0,0,0,6.2-4.749,13.5,13.5,0,0,0,2.4-7.826v-6.486l-8.6-3.243-8.6,3.243v6.486a13.5,13.5,0,0,0,2.4,7.826A11.938,11.938,0,0,0,170.589-852.711ZM170.589-863.863Z" transform="translate(-160 877)" fill="#7d7e80"/>
</svg>
